:SAMPLES-PER-SECOND 30
:FULLY-SPECIFIED
:DEGREES
83
root  -11.3036 39.9026 32.0204 -128.51 -78.9486 120.517
RightUpLeg  -13.5309 -15.7598 -5.61131
RightLeg  4.44598 -32.9505 4.39645
RightFoot  -4.31932 -0.0513339 0.399527
RightToes  2.32829e-010 0 -3.6325e-017
Spine  5.003 -1.58986 -8.20051
Spine1  9.45255 -1.98627 0.049598
HEad  3.0626 -29.5503 9.52531
LeftShoulder1  7.26052 -10.6907 -44.5421
LeftArm  -23.1342 16.15 -21.332
LeftForeArm  36.1698 -58.369 -15.0186
LeftHand  -0.244104 0.0205437 5.32207
RightShoulder  5.96534 9.25342 40.589
RightArm  14.988 -19.5043 32.0252
RightForeArm  0.777819 19.3346 5.85069
RightHand  -0.937801 1.80017 -15.2565
LeftUpLeg  8.21462 6.35629 -5.72776
LeftLeg  11.415 15.2021 -3.38152
LeftFoot  -9.51271 0.0602219 -0.279605
LeftToes  -2.63786e-011 3.77076e-011 -4.2586e-012
84
root  -12.7508 39.5848 31.7958 -130.475 -76.8469 122.14
RightUpLeg  -11.3373 -11.5998 -7.31196
RightLeg  -6.51034 -49.2792 14.3678
RightFoot  -4.43884 -0.107979 1.31998
RightToes  2.32829e-010 0 -3.6325e-017
Spine  3.94601 -1.6144 -10.0505
Spine1  9.72602 -2.15438 0.807193
HEad  3.23596 -30.962 9.59963
LeftShoulder1  7.13643 -10.5517 -44.1964
LeftArm  -24.3052 16.0843 -20.1125
LeftForeArm  36.9842 -59.9626 -16.0721
LeftHand  -0.244104 0.0205437 5.32207
RightShoulder  5.9238 9.20812 40.4373
RightArm  12.2493 -20.0284 31.737
RightForeArm  0.569261 18.4257 6.16973
RightHand  -0.894533 1.46895 -15.2423
LeftUpLeg  10.5504 7.30658 -6.77964
LeftLeg  12.5138 15.8829 -3.26901
LeftFoot  -11.7332 0.064528 -1.85393
LeftToes  -2.63786e-011 3.77076e-011 -4.2586e-012
85
root  -14.2243 39.2616 31.5655 -135.491 -74.4191 126.82
RightUpLeg  -11.1366 -11.4437 -6.44013
RightLeg  -10.2264 -56.3519 17.9218
RightFoot  -5.60593 -0.000368103 -0.797328
RightToes  2.32829e-010 0 -3.6325e-017
Spine  2.55288 -1.56455 -10.3037
Spine1  10.2793 -1.91461 0.513986
HEad  3.45895 -31.6632 9.47716
LeftShoulder1  6.98087 -10.377 -43.7551
LeftArm  -25.4177 16.8117 -19.2584
LeftForeArm  36.995 -60.116 -16.1902
LeftHand  -0.244104 0.0205437 5.32207
RightShoulder  5.94981 9.24067 40.5175
RightArm  8.97981 -20.1365 31.4597
RightForeArm  0.87796 17.147 6.57421
RightHand  -0.893617 1.39892 -15.3768
LeftUpLeg  12.8839 10.1003 -7.1426
LeftLeg  14.012 15.2822 -2.88078
LeftFoot  -13.6075 0.0166862 -3.29301
LeftToes  -2.63786e-011 3.77076e-011 -4.2586e-012
86
root  -15.7115 39.0923 31.3627 -143.452 -72.4065 134.857
RightUpLeg  -10.769 -10.5393 -4.57906
RightLeg  -10.1308 -57.8834 17.9314
RightFoot  -6.82818 0.310762 -9.26481
RightToes  2.32829e-010 0 -3.6325e-017
Spine  0.722454 -1.63169 -7.22436
Spine1  11.2579 -1.47925 -0.962846
HEad  4.11208 -31.9904 8.901
LeftShoulder1  6.95152 -10.2808 -43.88
LeftArm  -25.8877 18.4244 -17.973
LeftForeArm  35.7314 -58.8403 -15.4071
LeftHand  -0.244104 0.0205437 5.32207
RightShoulder  5.97541 9.23515 40.7262
RightArm  5.44371 -19.9263 31.1873
RightForeArm  2.28438 15.6789 6.90849
RightHand  -0.930097 1.65996 -15.4235
LeftUpLeg  15.4701 16.9494 -4.95752
LeftLeg  15.2547 10.5305 -1.9723
LeftFoot  -14.807 -0.0877455 -5.65206
LeftToes  -2.63786e-011 3.77076e-011 -4.2586e-012
87
root  -17.2498 39.0089 31.1191 -153.245 -70.2529 145.217
RightUpLeg  -11.7394 -10.6598 -2.00866
RightLeg  -1.96776 -54.9669 11.7545
RightFoot  -8.95158 0.310139 -17.4322
RightToes  2.32829e-010 0 -3.6325e-017
Spine  -1.32114 -1.56952 -1.78344
Spine1  12.0328 -0.822421 -3.02059
HEad  5.03614 -32.1909 7.86016
LeftShoulder1  7.00502 -10.1185 -44.7867
LeftArm  -25.5977 20.4151 -16.5123
LeftForeArm  33.9323 -55.5778 -13.5436
LeftHand  -0.244104 0.0205437 5.32207
RightShoulder  6.0035 9.18244 41.1175
RightArm  2.25263 -19.3804 30.6157
RightForeArm  4.34404 14.2148 7.10414
RightHand  -0.943824 1.84297 -15.2648
LeftUpLeg  17.5171 27.8111 0.274877
LeftLeg  18.633 1.42002 -0.346645
LeftFoot  -14.6471 -0.210683 -10.5834
LeftToes  -2.63786e-011 3.77076e-011 -4.2586e-012
88
root  -18.725 38.9201 30.7339 -162.079 -66.8757 154.798
RightUpLeg  -14.0248 -14.004 1.4866
RightLeg  10.4779 -47.2144 2.19075
RightFoot  -11.3465 -0.0704747 -19.4466
RightToes  2.32829e-010 0 -3.6325e-017
Spine  -2.62175 -1.13894 2.84203
Spine1  11.8215 -0.110757 -4.22316
HEad  5.76137 -32.0565 6.70673
LeftShoulder1  6.90384 -9.73102 -45.4493
LeftArm  -25.2997 22.7599 -16.5807
LeftForeArm  32.5452 -50.3958 -11.0528
LeftHand  -0.244104 0.0205437 5.32207
RightShoulder  6.04953 9.16702 41.5119
RightArm  -0.311879 -18.2489 29.9378
RightForeArm  6.77892 12.808 7.17207
RightHand  -0.932049 1.90446 -14.9575
LeftUpLeg  15.8386 30.6886 3.61048
LeftLeg  26.8876 0.0592443 0.583794
LeftFoot  -10.4653 0.217873 -16.5723
LeftToes  -2.63786e-011 3.77076e-011 -4.2586e-012
89
root  -19.9435 38.8461 30.221 -168.274 -62.774 161.633
RightUpLeg  -15.0888 -19.1135 5.76584
RightLeg  16.3532 -36.7248 -2.58486
RightFoot  -13.0536 -0.361039 -18.2592
RightToes  2.32829e-010 0 -3.6325e-017
Spine  -2.25347 -0.814117 4.75257
Spine1  10.7577 -0.00350153 -3.12671
HEad  5.99199 -31.2673 5.97722
LeftShoulder1  6.68733 -9.38639 -45.1893
LeftArm  -25.3433 25.8384 -18.762
LeftForeArm  30.6486 -44.2436 -8.78935
LeftHand  -0.244104 0.0205437 5.32207
RightShoulder  6.07299 9.21377 41.5207
RightArm  -2.26582 -16.4939 29.9286
RightForeArm  8.84469 12.1396 6.98628
RightHand  -0.91809 2.01009 -14.5346
LeftUpLeg  9.93683 29.114 4.96438
LeftLeg  39.1671 0.975621 1.20074
LeftFoot  -1.02659 1.70648 -19.0836
LeftToes  -2.63786e-011 3.77076e-011 -4.2586e-012
90
root  -20.9017 38.7034 29.6883 -172.049 -59.1623 165.695
RightUpLeg  -14.6686 -18.2897 7.84052
RightLeg  19.6508 -33.1431 -4.79861
RightFoot  -15.224 -0.683334 -16.9692
RightToes  2.32829e-010 0 -3.6325e-017
Spine  -0.675728 -1.17597 4.43828
Spine1  9.73008 -0.760638 -0.349548
HEad  5.60498 -29.8786 6.15909
LeftShoulder1  6.67179 -9.48865 -44.7128
LeftArm  -24.3747 28.9541 -21.4696
LeftForeArm  26.7459 -37.5996 -6.98503
LeftHand  -0.244104 0.0205437 5.32207
RightShoulder  6.05208 9.25231 41.2318
RightArm  -2.66213 -14.6113 30.915
RightForeArm  7.87931 13.8254 6.4168
RightHand  -0.878027 1.84369 -14.2228
LeftUpLeg  1.80727 24.876 4.85356
LeftLeg  51.9879 0.73789 1.46632
LeftFoot  7.61685 2.67783 -16.2791
LeftToes  -2.63786e-011 3.77076e-011 -4.2586e-012
91
root  -21.7984 38.6508 29.1555 -174.297 -55.4677 167.9
RightUpLeg  -12.9957 -15.056 8.22213
RightLeg  21.3916 -32.426 -5.39115
RightFoot  -17.1619 -0.962697 -16.5235
RightToes  2.32829e-010 0 -3.6325e-017
Spine  0.802595 -1.68877 3.89869
Spine1  9.44278 -1.45632 1.59313
HEad  4.76984 -28.2167 7.17947
LeftShoulder1  6.89654 -9.91283 -44.7628
LeftArm  -20.2067 30.6309 -23.1228
LeftForeArm  22.0346 -30.4051 -5.38976
LeftHand  -0.244104 0.0205437 5.32207
RightShoulder  6.0593 9.26399 41.2441
RightArm  -0.219542 -13.1032 32.2608
RightForeArm  2.10231 18.3716 5.54382
RightHand  -0.832637 1.26578 -14.6284
LeftUpLeg  -5.72862 19.3616 3.90805
LeftLeg  62.0685 1.06829 2.88524
LeftFoot  9.74729 2.00423 -10.9558
LeftToes  -2.63786e-011 3.77076e-011 -4.2586e-012
92
root  -22.7537 38.8355 28.5416 -175.227 -49.8667 168.625
RightUpLeg  -10.3677 -12.2794 7.88143
RightLeg  20.9018 -29.9247 -4.67486
RightFoot  -17.726 -1.02949 -16.1914
RightToes  2.32829e-010 0 -3.6325e-017
Spine  1.3988 -1.38776 3.95843
Spine1  9.63163 -0.92823 1.12481
HEad  4.13339 -26.3965 8.17999
LeftShoulder1  7.09755 -10.2023 -45.1132
LeftArm  -12.9933 30.7477 -23.9056
LeftForeArm  19.7881 -23.6397 -4.11217
LeftHand  -0.244104 0.0205437 5.32207
RightShoulder  6.16294 9.33848 41.7414
RightArm  2.98107 -11.8248 33.2513
RightForeArm  -3.3893 23.4702 5.17361
RightHand  -0.878692 1.06517 -15.8617
LeftUpLeg  -11.2791 15.2893 2.75598
LeftLeg  67.7578 2.4814 7.40895
LeftFoot  7.30137 0.899471 -5.71485
LeftToes  -2.63786e-011 3.77076e-011 -4.2586e-012
93
root  -23.6996 39.1089 27.8456 -175.413 -42.1104 168.617
RightUpLeg  -7.47153 -9.79529 7.15058
RightLeg  19.3477 -25.2115 -3.52511
RightFoot  -17.7226 -1.00976 -15.8591
RightToes  2.32829e-010 0 -3.6325e-017
Spine  1.57933 -0.262078 4.43448
Spine1  9.51705 0.753976 -0.886898
HEad  4.27694 -24.2215 8.28551
LeftShoulder1  7.16846 -10.2586 -45.388
LeftArm  -7.53096 30.7769 -24.906
LeftForeArm  22.5676 -18.851 -3.80618
LeftHand  -0.244104 0.0205437 5.32207
RightShoulder  6.31676 9.51729 42.2295
RightArm  5.15678 -10.3129 34.0779
RightForeArm  -2.89663 26.6805 5.87503
RightHand  -0.991393 1.55671 -16.6613
LeftUpLeg  -15.3973 13.0452 1.71858
LeftLeg  69.4268 3.96975 12.3513
LeftFoot  3.88875 0.189204 -1.60499
LeftToes  -2.63786e-011 3.77076e-011 -4.2586e-012
